<?xml version="1.0" encoding="us-ascii" standalone="no"?><svg xmlns="http://www.w3.org/2000/svg" xmlns:xlink="http://www.w3.org/1999/xlink" contentStyleType="text/css" height="1146px" preserveAspectRatio="none" style="width:1157px;height:1146px;background:#FFFFFF;" version="1.1" viewBox="0 0 1157 1146" width="1157px" zoomAndPan="magnify"><defs/><g><!--class AuditLog--><g id="elem_AuditLog"><rect codeLine="16" fill="#FFFFFF" height="141.418" id="AuditLog" rx="2.5" ry="2.5" style="stroke:#2C3E50;stroke-width:0.5;" width="210" x="595" y="7"/><rect fill="#ECF0F1" height="26.4883" rx="2.5" ry="2.5" style="stroke:#ECF0F1;stroke-width:0.5;" width="210" x="595" y="7"/><rect fill="#ECF0F1" height="2.5" style="stroke:#ECF0F1;stroke-width:0.5;" width="210" x="595" y="30.9883"/><rect codeLine="16" fill="none" height="141.418" id="AuditLog" rx="2.5" ry="2.5" style="stroke:#2C3E50;stroke-width:0.5;" width="210" x="595" y="7"/><text fill="#000000" font-family="sans-serif" font-size="14" lengthAdjust="spacing" textLength="62" x="669" y="25.5352">AuditLog</text><line style="stroke:#2C3E50;stroke-width:0.5;" x1="596" x2="804" y1="33.4883" y2="33.4883"/><ellipse cx="606" cy="47.2324" fill="#000000" rx="3" ry="3" style="stroke:#000000;stroke-width:1.0;"/><text fill="#000000" font-family="sans-serif" font-size="14" lengthAdjust="spacing" textLength="94" x="615" y="51.0234">Id : UUID &#171;PK&#187;</text><line style="stroke:#2C3E50;stroke-width:1.0;" x1="596" x2="804" y1="57.9766" y2="57.9766"/><text fill="#000000" font-family="sans-serif" font-size="14" lengthAdjust="spacing" textLength="150" x="615" y="75.5117">AccountId : UUID &#171;FK&#187;</text><ellipse cx="606" cy="88.209" fill="#000000" rx="3" ry="3" style="stroke:#000000;stroke-width:1.0;"/><text fill="#000000" font-family="sans-serif" font-size="14" lengthAdjust="spacing" textLength="160" x="615" y="92">Action : VARCHAR(100)</text><text fill="#000000" font-family="sans-serif" font-size="14" lengthAdjust="spacing" textLength="184" x="615" y="108.4883">EntityName : VARCHAR(50)</text><text fill="#000000" font-family="sans-serif" font-size="14" lengthAdjust="spacing" textLength="97" x="615" y="124.9766">EntityId : UUID</text><ellipse cx="606" cy="137.6738" fill="#000000" rx="3" ry="3" style="stroke:#000000;stroke-width:1.0;"/><text fill="#000000" font-family="sans-serif" font-size="14" lengthAdjust="spacing" textLength="168" x="615" y="141.4648">Timestamp : TIMESTAMP</text></g><!--class Role--><g id="elem_Role"><rect codeLine="26" fill="#FFFFFF" height="75.4648" id="Role" rx="2.5" ry="2.5" style="stroke:#2C3E50;stroke-width:0.5;" width="211" x="308.5" y="251.39"/><rect fill="#ECF0F1" height="26.4883" rx="2.5" ry="2.5" style="stroke:#ECF0F1;stroke-width:0.5;" width="211" x="308.5" y="251.39"/><rect fill="#ECF0F1" height="2.5" style="stroke:#ECF0F1;stroke-width:0.5;" width="211" x="308.5" y="275.3783"/><rect codeLine="26" fill="none" height="75.4648" id="Role" rx="2.5" ry="2.5" style="stroke:#2C3E50;stroke-width:0.5;" width="211" x="308.5" y="251.39"/><text fill="#000000" font-family="sans-serif" font-size="14" lengthAdjust="spacing" textLength="30" x="399" y="269.9252">Role</text><line style="stroke:#2C3E50;stroke-width:0.5;" x1="309.5" x2="518.5" y1="277.8783" y2="277.8783"/><ellipse cx="319.5" cy="291.6224" fill="#000000" rx="3" ry="3" style="stroke:#000000;stroke-width:1.0;"/><text fill="#000000" font-family="sans-serif" font-size="14" lengthAdjust="spacing" textLength="83" x="328.5" y="295.4134">Id : INT &#171;PK&#187;</text><line style="stroke:#2C3E50;stroke-width:1.0;" x1="309.5" x2="518.5" y1="302.3666" y2="302.3666"/><ellipse cx="319.5" cy="316.1107" fill="#000000" rx="3" ry="3" style="stroke:#000000;stroke-width:1.0;"/><text fill="#000000" font-family="sans-serif" font-size="14" lengthAdjust="spacing" textLength="185" x="328.5" y="319.9017">Name : VARCHAR(50) &#171;UQ&#187;</text></g><!--class Account--><g id="elem_Account"><rect codeLine="32" fill="#FFFFFF" height="141.418" id="Account" rx="2.5" ry="2.5" style="stroke:#2C3E50;stroke-width:0.5;" width="241" x="579.5" y="218.41"/><rect fill="#ECF0F1" height="26.4883" rx="2.5" ry="2.5" style="stroke:#ECF0F1;stroke-width:0.5;" width="241" x="579.5" y="218.41"/><rect fill="#ECF0F1" height="2.5" style="stroke:#ECF0F1;stroke-width:0.5;" width="241" x="579.5" y="242.3983"/><rect codeLine="32" fill="none" height="141.418" id="Account" rx="2.5" ry="2.5" style="stroke:#2C3E50;stroke-width:0.5;" width="241" x="579.5" y="218.41"/><text fill="#000000" font-family="sans-serif" font-size="14" lengthAdjust="spacing" textLength="56" x="672" y="236.9452">Account</text><line style="stroke:#2C3E50;stroke-width:0.5;" x1="580.5" x2="819.5" y1="244.8983" y2="244.8983"/><ellipse cx="590.5" cy="258.6424" fill="#000000" rx="3" ry="3" style="stroke:#000000;stroke-width:1.0;"/><text fill="#000000" font-family="sans-serif" font-size="14" lengthAdjust="spacing" textLength="94" x="599.5" y="262.4334">Id : UUID &#171;PK&#187;</text><line style="stroke:#2C3E50;stroke-width:1.0;" x1="580.5" x2="819.5" y1="269.3866" y2="269.3866"/><ellipse cx="590.5" cy="283.1307" fill="#000000" rx="3" ry="3" style="stroke:#000000;stroke-width:1.0;"/><text fill="#000000" font-family="sans-serif" font-size="14" lengthAdjust="spacing" textLength="192" x="599.5" y="286.9217">Email : VARCHAR(256) &#171;UQ&#187;</text><ellipse cx="590.5" cy="299.619" fill="#000000" rx="3" ry="3" style="stroke:#000000;stroke-width:1.0;"/><text fill="#000000" font-family="sans-serif" font-size="14" lengthAdjust="spacing" textLength="215" x="599.5" y="303.41">PasswordHash : VARCHAR(256)</text><ellipse cx="590.5" cy="316.1073" fill="#000000" rx="3" ry="3" style="stroke:#000000;stroke-width:1.0;"/><text fill="#000000" font-family="sans-serif" font-size="14" lengthAdjust="spacing" textLength="113" x="599.5" y="319.8983">RoleId : INT &#171;FK&#187;</text><ellipse cx="590.5" cy="332.5955" fill="#000000" rx="3" ry="3" style="stroke:#000000;stroke-width:1.0;"/><text fill="#000000" font-family="sans-serif" font-size="14" lengthAdjust="spacing" textLength="101" x="599.5" y="336.3866">IsActive : BOOL</text><ellipse cx="590.5" cy="349.0838" fill="#000000" rx="3" ry="3" style="stroke:#000000;stroke-width:1.0;"/><text fill="#000000" font-family="sans-serif" font-size="14" lengthAdjust="spacing" textLength="161" x="599.5" y="352.8748">CreatedAt : TIMESTAMP</text></g><!--class UserProfile--><g id="elem_UserProfile"><rect codeLine="42" fill="#FFFFFF" height="124.9297" id="UserProfile" rx="2.5" ry="2.5" style="stroke:#2C3E50;stroke-width:0.5;" width="270" x="880" y="226.66"/><rect fill="#ECF0F1" height="26.4883" rx="2.5" ry="2.5" style="stroke:#ECF0F1;stroke-width:0.5;" width="270" x="880" y="226.66"/><rect fill="#ECF0F1" height="2.5" style="stroke:#ECF0F1;stroke-width:0.5;" width="270" x="880" y="250.6483"/><rect codeLine="42" fill="none" height="124.9297" id="UserProfile" rx="2.5" ry="2.5" style="stroke:#2C3E50;stroke-width:0.5;" width="270" x="880" y="226.66"/><text fill="#000000" font-family="sans-serif" font-size="14" lengthAdjust="spacing" textLength="75" x="977.5" y="245.1952">UserProfile</text><line style="stroke:#2C3E50;stroke-width:0.5;" x1="881" x2="1149" y1="253.1483" y2="253.1483"/><ellipse cx="891" cy="266.8924" fill="#000000" rx="3" ry="3" style="stroke:#000000;stroke-width:1.0;"/><text fill="#000000" font-family="sans-serif" font-size="14" lengthAdjust="spacing" textLength="185" x="900" y="270.6834">AccountId : UUID &#171;PK&#187; &#171;FK&#187;</text><line style="stroke:#2C3E50;stroke-width:1.0;" x1="881" x2="1149" y1="277.6366" y2="277.6366"/><ellipse cx="891" cy="291.3807" fill="#000000" rx="3" ry="3" style="stroke:#000000;stroke-width:1.0;"/><text fill="#000000" font-family="sans-serif" font-size="14" lengthAdjust="spacing" textLength="176" x="900" y="295.1717">FirstName : VARCHAR(50)</text><ellipse cx="891" cy="307.869" fill="#000000" rx="3" ry="3" style="stroke:#000000;stroke-width:1.0;"/><text fill="#000000" font-family="sans-serif" font-size="14" lengthAdjust="spacing" textLength="173" x="900" y="311.66">LastName : VARCHAR(50)</text><text fill="#000000" font-family="sans-serif" font-size="14" lengthAdjust="spacing" textLength="244" x="900" y="328.1483">PhoneNumber : VARCHAR(20) &#171;UQ&#187;</text><text fill="#000000" font-family="sans-serif" font-size="14" lengthAdjust="spacing" textLength="180" x="900" y="344.6366">AvatarUrl : VARCHAR(500)</text></g><!--class Payment--><g id="elem_Payment"><rect codeLine="51" fill="#FFFFFF" height="124.9297" id="Payment" rx="2.5" ry="2.5" style="stroke:#2C3E50;stroke-width:0.5;" width="207" x="92.5" y="438.08"/><rect fill="#ECF0F1" height="26.4883" rx="2.5" ry="2.5" style="stroke:#ECF0F1;stroke-width:0.5;" width="207" x="92.5" y="438.08"/><rect fill="#ECF0F1" height="2.5" style="stroke:#ECF0F1;stroke-width:0.5;" width="207" x="92.5" y="462.0683"/><rect codeLine="51" fill="none" height="124.9297" id="Payment" rx="2.5" ry="2.5" style="stroke:#2C3E50;stroke-width:0.5;" width="207" x="92.5" y="438.08"/><text fill="#000000" font-family="sans-serif" font-size="14" lengthAdjust="spacing" textLength="58" x="167" y="456.6152">Payment</text><line style="stroke:#2C3E50;stroke-width:0.5;" x1="93.5" x2="298.5" y1="464.5683" y2="464.5683"/><ellipse cx="103.5" cy="478.3124" fill="#000000" rx="3" ry="3" style="stroke:#000000;stroke-width:1.0;"/><text fill="#000000" font-family="sans-serif" font-size="14" lengthAdjust="spacing" textLength="94" x="112.5" y="482.1034">Id : UUID &#171;PK&#187;</text><line style="stroke:#2C3E50;stroke-width:1.0;" x1="93.5" x2="298.5" y1="489.0566" y2="489.0566"/><ellipse cx="103.5" cy="502.8007" fill="#000000" rx="3" ry="3" style="stroke:#000000;stroke-width:1.0;"/><text fill="#000000" font-family="sans-serif" font-size="14" lengthAdjust="spacing" textLength="150" x="112.5" y="506.5917">AccountId : UUID &#171;FK&#187;</text><ellipse cx="103.5" cy="519.289" fill="#000000" rx="3" ry="3" style="stroke:#000000;stroke-width:1.0;"/><text fill="#000000" font-family="sans-serif" font-size="14" lengthAdjust="spacing" textLength="143" x="112.5" y="523.08">CourseId : UUID &#171;FK&#187;</text><ellipse cx="103.5" cy="535.7773" fill="#000000" rx="3" ry="3" style="stroke:#000000;stroke-width:1.0;"/><text fill="#000000" font-family="sans-serif" font-size="14" lengthAdjust="spacing" textLength="175" x="112.5" y="539.5683">Amount : NUMERIC(10, 2)</text><ellipse cx="103.5" cy="552.2655" fill="#000000" rx="3" ry="3" style="stroke:#000000;stroke-width:1.0;"/><text fill="#000000" font-family="sans-serif" font-size="14" lengthAdjust="spacing" textLength="181" x="112.5" y="556.0566">PaymentDate : TIMESTAMP</text></g><!--class Course--><g id="elem_Course"><rect codeLine="60" fill="#FFFFFF" height="141.418" id="Course" rx="2.5" ry="2.5" style="stroke:#2C3E50;stroke-width:0.5;" width="179" x="359.5" y="429.83"/><rect fill="#ECF0F1" height="26.4883" rx="2.5" ry="2.5" style="stroke:#ECF0F1;stroke-width:0.5;" width="179" x="359.5" y="429.83"/><rect fill="#ECF0F1" height="2.5" style="stroke:#ECF0F1;stroke-width:0.5;" width="179" x="359.5" y="453.8183"/><rect codeLine="60" fill="none" height="141.418" id="Course" rx="2.5" ry="2.5" style="stroke:#2C3E50;stroke-width:0.5;" width="179" x="359.5" y="429.83"/><text fill="#000000" font-family="sans-serif" font-size="14" lengthAdjust="spacing" textLength="49" x="424.5" y="448.3652">Course</text><line style="stroke:#2C3E50;stroke-width:0.5;" x1="360.5" x2="537.5" y1="456.3183" y2="456.3183"/><ellipse cx="370.5" cy="470.0624" fill="#000000" rx="3" ry="3" style="stroke:#000000;stroke-width:1.0;"/><text fill="#000000" font-family="sans-serif" font-size="14" lengthAdjust="spacing" textLength="94" x="379.5" y="473.8534">Id : UUID &#171;PK&#187;</text><line style="stroke:#2C3E50;stroke-width:1.0;" x1="360.5" x2="537.5" y1="480.8066" y2="480.8066"/><ellipse cx="370.5" cy="494.5507" fill="#000000" rx="3" ry="3" style="stroke:#000000;stroke-width:1.0;"/><text fill="#000000" font-family="sans-serif" font-size="14" lengthAdjust="spacing" textLength="142" x="379.5" y="498.3417">AuthorId : UUID &#171;FK&#187;</text><ellipse cx="370.5" cy="511.039" fill="#000000" rx="3" ry="3" style="stroke:#000000;stroke-width:1.0;"/><text fill="#000000" font-family="sans-serif" font-size="14" lengthAdjust="spacing" textLength="146" x="379.5" y="514.83">Title : VARCHAR(150)</text><text fill="#000000" font-family="sans-serif" font-size="14" lengthAdjust="spacing" textLength="125" x="379.5" y="531.3183">Description : TEXT</text><ellipse cx="370.5" cy="544.0155" fill="#000000" rx="3" ry="3" style="stroke:#000000;stroke-width:1.0;"/><text fill="#000000" font-family="sans-serif" font-size="14" lengthAdjust="spacing" textLength="153" x="379.5" y="547.8066">Price : NUMERIC(10, 2)</text><ellipse cx="370.5" cy="560.5038" fill="#000000" rx="3" ry="3" style="stroke:#000000;stroke-width:1.0;"/><text fill="#000000" font-family="sans-serif" font-size="14" lengthAdjust="spacing" textLength="148" x="379.5" y="564.2948">Status : course_status</text></g><!--class Enrollment--><g id="elem_Enrollment"><rect codeLine="70" fill="#FFFFFF" height="124.9297" id="Enrollment" rx="2.5" ry="2.5" style="stroke:#2C3E50;stroke-width:0.5;" width="203" x="598.5" y="438.08"/><rect fill="#ECF0F1" height="26.4883" rx="2.5" ry="2.5" style="stroke:#ECF0F1;stroke-width:0.5;" width="203" x="598.5" y="438.08"/><rect fill="#ECF0F1" height="2.5" style="stroke:#ECF0F1;stroke-width:0.5;" width="203" x="598.5" y="462.0683"/><rect codeLine="70" fill="none" height="124.9297" id="Enrollment" rx="2.5" ry="2.5" style="stroke:#2C3E50;stroke-width:0.5;" width="203" x="598.5" y="438.08"/><text fill="#000000" font-family="sans-serif" font-size="14" lengthAdjust="spacing" textLength="75" x="662.5" y="456.6152">Enrollment</text><line style="stroke:#2C3E50;stroke-width:0.5;" x1="599.5" x2="800.5" y1="464.5683" y2="464.5683"/><ellipse cx="609.5" cy="478.3124" fill="#000000" rx="3" ry="3" style="stroke:#000000;stroke-width:1.0;"/><text fill="#000000" font-family="sans-serif" font-size="14" lengthAdjust="spacing" textLength="94" x="618.5" y="482.1034">Id : UUID &#171;PK&#187;</text><line style="stroke:#2C3E50;stroke-width:1.0;" x1="599.5" x2="800.5" y1="489.0566" y2="489.0566"/><ellipse cx="609.5" cy="502.8007" fill="#000000" rx="3" ry="3" style="stroke:#000000;stroke-width:1.0;"/><text fill="#000000" font-family="sans-serif" font-size="14" lengthAdjust="spacing" textLength="147" x="618.5" y="506.5917">StudentId : UUID &#171;FK&#187;</text><ellipse cx="609.5" cy="519.289" fill="#000000" rx="3" ry="3" style="stroke:#000000;stroke-width:1.0;"/><text fill="#000000" font-family="sans-serif" font-size="14" lengthAdjust="spacing" textLength="143" x="618.5" y="523.08">CourseId : UUID &#171;FK&#187;</text><ellipse cx="609.5" cy="535.7773" fill="#000000" rx="3" ry="3" style="stroke:#000000;stroke-width:1.0;"/><text fill="#000000" font-family="sans-serif" font-size="14" lengthAdjust="spacing" textLength="177" x="618.5" y="539.5683">Status : enrollment_status</text><ellipse cx="609.5" cy="552.2655" fill="#000000" rx="3" ry="3" style="stroke:#000000;stroke-width:1.0;"/><text fill="#000000" font-family="sans-serif" font-size="14" lengthAdjust="spacing" textLength="164" x="618.5" y="556.0566">EnrolledAt : TIMESTAMP</text></g><g id="elem_GMN9"><path d="M238.5,677.66 L238.5,713.2811 A2.5,2.5 0 0 0 241,715.7811 L521,715.7811 A2.5,2.5 0 0 0 523.5,713.2811 L523.5,685.16 L513.5,675.16 L241,675.16 A2.5,2.5 0 0 0 238.5,677.66 " fill="#FEFFDD" style="stroke:#181818;stroke-width:0.5;"/><path d="M513.5,675.16 L513.5,683.91 A1.25,1.25 0 0 0 514.75,685.16 L523.5,685.16 L513.5,675.16 " fill="#FEFFDD" style="stroke:#181818;stroke-width:1.0;"/><text fill="#000000" font-family="sans-serif" font-size="13" lengthAdjust="spacing" textLength="264" x="244.5" y="692.7284">&#1059;&#1085;&#1080;&#1082;&#1072;&#1083;&#1100;&#1085;&#1099;&#1081; &#1080;&#1085;&#1076;&#1077;&#1082;&#1089; (StudentId, CourseId)</text><text fill="#000000" font-family="sans-serif" font-size="13" lengthAdjust="spacing" textLength="149" x="244.5" y="708.0389">WHERE Status = 'Active'</text></g><!--class Certificate--><g id="elem_Certificate"><rect codeLine="83" fill="#FFFFFF" height="108.4414" id="Certificate" rx="2.5" ry="2.5" style="stroke:#2C3E50;stroke-width:0.5;" width="234" x="583" y="641.25"/><rect fill="#ECF0F1" height="26.4883" rx="2.5" ry="2.5" style="stroke:#ECF0F1;stroke-width:0.5;" width="234" x="583" y="641.25"/><rect fill="#ECF0F1" height="2.5" style="stroke:#ECF0F1;stroke-width:0.5;" width="234" x="583" y="665.2383"/><rect codeLine="83" fill="none" height="108.4414" id="Certificate" rx="2.5" ry="2.5" style="stroke:#2C3E50;stroke-width:0.5;" width="234" x="583" y="641.25"/><text fill="#000000" font-family="sans-serif" font-size="14" lengthAdjust="spacing" textLength="70" x="665" y="659.7852">Certificate</text><line style="stroke:#2C3E50;stroke-width:0.5;" x1="584" x2="816" y1="667.7383" y2="667.7383"/><ellipse cx="594" cy="681.4824" fill="#000000" rx="3" ry="3" style="stroke:#000000;stroke-width:1.0;"/><text fill="#000000" font-family="sans-serif" font-size="14" lengthAdjust="spacing" textLength="94" x="603" y="685.2734">Id : UUID &#171;PK&#187;</text><line style="stroke:#2C3E50;stroke-width:1.0;" x1="584" x2="816" y1="692.2266" y2="692.2266"/><ellipse cx="594" cy="705.9707" fill="#000000" rx="3" ry="3" style="stroke:#000000;stroke-width:1.0;"/><text fill="#000000" font-family="sans-serif" font-size="14" lengthAdjust="spacing" textLength="208" x="603" y="709.7617">EnrollmentId : UUID &#171;FK&#187; &#171;UQ&#187;</text><ellipse cx="594" cy="722.459" fill="#000000" rx="3" ry="3" style="stroke:#000000;stroke-width:1.0;"/><text fill="#000000" font-family="sans-serif" font-size="14" lengthAdjust="spacing" textLength="151" x="603" y="726.25">IssuedAt : TIMESTAMP</text><ellipse cx="594" cy="738.9473" fill="#000000" rx="3" ry="3" style="stroke:#000000;stroke-width:1.0;"/><text fill="#000000" font-family="sans-serif" font-size="14" lengthAdjust="spacing" textLength="206" x="603" y="742.7383">CertificateUrl : VARCHAR(500)</text></g><!--class Module--><g id="elem_Module"><rect codeLine="91" fill="#FFFFFF" height="108.4414" id="Module" rx="2.5" ry="2.5" style="stroke:#2C3E50;stroke-width:0.5;" width="172" x="7" y="641.25"/><rect fill="#ECF0F1" height="26.4883" rx="2.5" ry="2.5" style="stroke:#ECF0F1;stroke-width:0.5;" width="172" x="7" y="641.25"/><rect fill="#ECF0F1" height="2.5" style="stroke:#ECF0F1;stroke-width:0.5;" width="172" x="7" y="665.2383"/><rect codeLine="91" fill="none" height="108.4414" id="Module" rx="2.5" ry="2.5" style="stroke:#2C3E50;stroke-width:0.5;" width="172" x="7" y="641.25"/><text fill="#000000" font-family="sans-serif" font-size="14" lengthAdjust="spacing" textLength="51" x="67.5" y="659.7852">Module</text><line style="stroke:#2C3E50;stroke-width:0.5;" x1="8" x2="178" y1="667.7383" y2="667.7383"/><ellipse cx="18" cy="681.4824" fill="#000000" rx="3" ry="3" style="stroke:#000000;stroke-width:1.0;"/><text fill="#000000" font-family="sans-serif" font-size="14" lengthAdjust="spacing" textLength="94" x="27" y="685.2734">Id : UUID &#171;PK&#187;</text><line style="stroke:#2C3E50;stroke-width:1.0;" x1="8" x2="178" y1="692.2266" y2="692.2266"/><ellipse cx="18" cy="705.9707" fill="#000000" rx="3" ry="3" style="stroke:#000000;stroke-width:1.0;"/><text fill="#000000" font-family="sans-serif" font-size="14" lengthAdjust="spacing" textLength="143" x="27" y="709.7617">CourseId : UUID &#171;FK&#187;</text><ellipse cx="18" cy="722.459" fill="#000000" rx="3" ry="3" style="stroke:#000000;stroke-width:1.0;"/><text fill="#000000" font-family="sans-serif" font-size="14" lengthAdjust="spacing" textLength="146" x="27" y="726.25">Title : VARCHAR(150)</text><ellipse cx="18" cy="738.9473" fill="#000000" rx="3" ry="3" style="stroke:#000000;stroke-width:1.0;"/><text fill="#000000" font-family="sans-serif" font-size="14" lengthAdjust="spacing" textLength="107" x="27" y="742.7383">OrderNum : INT</text></g><!--class Lesson--><g id="elem_Lesson"><rect codeLine="99" fill="#FFFFFF" height="124.9297" id="Lesson" rx="2.5" ry="2.5" style="stroke:#2C3E50;stroke-width:0.5;" width="172" x="111" y="819.69"/><rect fill="#ECF0F1" height="26.4883" rx="2.5" ry="2.5" style="stroke:#ECF0F1;stroke-width:0.5;" width="172" x="111" y="819.69"/><rect fill="#ECF0F1" height="2.5" style="stroke:#ECF0F1;stroke-width:0.5;" width="172" x="111" y="843.6783"/><rect codeLine="99" fill="none" height="124.9297" id="Lesson" rx="2.5" ry="2.5" style="stroke:#2C3E50;stroke-width:0.5;" width="172" x="111" y="819.69"/><text fill="#000000" font-family="sans-serif" font-size="14" lengthAdjust="spacing" textLength="47" x="173.5" y="838.2252">Lesson</text><line style="stroke:#2C3E50;stroke-width:0.5;" x1="112" x2="282" y1="846.1783" y2="846.1783"/><ellipse cx="122" cy="859.9224" fill="#000000" rx="3" ry="3" style="stroke:#000000;stroke-width:1.0;"/><text fill="#000000" font-family="sans-serif" font-size="14" lengthAdjust="spacing" textLength="94" x="131" y="863.7134">Id : UUID &#171;PK&#187;</text><line style="stroke:#2C3E50;stroke-width:1.0;" x1="112" x2="282" y1="870.6666" y2="870.6666"/><ellipse cx="122" cy="884.4107" fill="#000000" rx="3" ry="3" style="stroke:#000000;stroke-width:1.0;"/><text fill="#000000" font-family="sans-serif" font-size="14" lengthAdjust="spacing" textLength="145" x="131" y="888.2017">ModuleId : UUID &#171;FK&#187;</text><ellipse cx="122" cy="900.899" fill="#000000" rx="3" ry="3" style="stroke:#000000;stroke-width:1.0;"/><text fill="#000000" font-family="sans-serif" font-size="14" lengthAdjust="spacing" textLength="146" x="131" y="904.69">Title : VARCHAR(150)</text><text fill="#000000" font-family="sans-serif" font-size="14" lengthAdjust="spacing" textLength="102" x="131" y="921.1783">Content : TEXT</text><ellipse cx="122" cy="933.8755" fill="#000000" rx="3" ry="3" style="stroke:#000000;stroke-width:1.0;"/><text fill="#000000" font-family="sans-serif" font-size="14" lengthAdjust="spacing" textLength="107" x="131" y="937.6666">OrderNum : INT</text></g><!--class Assignment--><g id="elem_Assignment"><rect codeLine="108" fill="#FFFFFF" height="108.4414" id="Assignment" rx="2.5" ry="2.5" style="stroke:#2C3E50;stroke-width:0.5;" width="167" x="320.5" y="1022.86"/><rect fill="#ECF0F1" height="26.4883" rx="2.5" ry="2.5" style="stroke:#ECF0F1;stroke-width:0.5;" width="167" x="320.5" y="1022.86"/><rect fill="#ECF0F1" height="2.5" style="stroke:#ECF0F1;stroke-width:0.5;" width="167" x="320.5" y="1046.8483"/><rect codeLine="108" fill="none" height="108.4414" id="Assignment" rx="2.5" ry="2.5" style="stroke:#2C3E50;stroke-width:0.5;" width="167" x="320.5" y="1022.86"/><text fill="#000000" font-family="sans-serif" font-size="14" lengthAdjust="spacing" textLength="81" x="363.5" y="1041.3952">Assignment</text><line style="stroke:#2C3E50;stroke-width:0.5;" x1="321.5" x2="486.5" y1="1049.3483" y2="1049.3483"/><ellipse cx="331.5" cy="1063.0924" fill="#000000" rx="3" ry="3" style="stroke:#000000;stroke-width:1.0;"/><text fill="#000000" font-family="sans-serif" font-size="14" lengthAdjust="spacing" textLength="94" x="340.5" y="1066.8834">Id : UUID &#171;PK&#187;</text><line style="stroke:#2C3E50;stroke-width:1.0;" x1="321.5" x2="486.5" y1="1073.8366" y2="1073.8366"/><ellipse cx="331.5" cy="1087.5807" fill="#000000" rx="3" ry="3" style="stroke:#000000;stroke-width:1.0;"/><text fill="#000000" font-family="sans-serif" font-size="14" lengthAdjust="spacing" textLength="141" x="340.5" y="1091.3717">LessonId : UUID &#171;FK&#187;</text><ellipse cx="331.5" cy="1104.069" fill="#000000" rx="3" ry="3" style="stroke:#000000;stroke-width:1.0;"/><text fill="#000000" font-family="sans-serif" font-size="14" lengthAdjust="spacing" textLength="125" x="340.5" y="1107.86">Description : TEXT</text><ellipse cx="331.5" cy="1120.5573" fill="#000000" rx="3" ry="3" style="stroke:#000000;stroke-width:1.0;"/><text fill="#000000" font-family="sans-serif" font-size="14" lengthAdjust="spacing" textLength="102" x="340.5" y="1124.3483">MaxScore : INT</text></g><!--class Submission--><g id="elem_Submission"><rect codeLine="116" fill="#FFFFFF" height="124.9297" id="Submission" rx="2.5" ry="2.5" style="stroke:#2C3E50;stroke-width:0.5;" width="203" x="650.5" y="1014.62"/><rect fill="#ECF0F1" height="26.4883" rx="2.5" ry="2.5" style="stroke:#ECF0F1;stroke-width:0.5;" width="203" x="650.5" y="1014.62"/><rect fill="#ECF0F1" height="2.5" style="stroke:#ECF0F1;stroke-width:0.5;" width="203" x="650.5" y="1038.6083"/><rect codeLine="116" fill="none" height="124.9297" id="Submission" rx="2.5" ry="2.5" style="stroke:#2C3E50;stroke-width:0.5;" width="203" x="650.5" y="1014.62"/><text fill="#000000" font-family="sans-serif" font-size="14" lengthAdjust="spacing" textLength="79" x="712.5" y="1033.1552">Submission</text><line style="stroke:#2C3E50;stroke-width:0.5;" x1="651.5" x2="852.5" y1="1041.1083" y2="1041.1083"/><ellipse cx="661.5" cy="1054.8524" fill="#000000" rx="3" ry="3" style="stroke:#000000;stroke-width:1.0;"/><text fill="#000000" font-family="sans-serif" font-size="14" lengthAdjust="spacing" textLength="94" x="670.5" y="1058.6434">Id : UUID &#171;PK&#187;</text><line style="stroke:#2C3E50;stroke-width:1.0;" x1="651.5" x2="852.5" y1="1065.5966" y2="1065.5966"/><ellipse cx="661.5" cy="1079.3407" fill="#000000" rx="3" ry="3" style="stroke:#000000;stroke-width:1.0;"/><text fill="#000000" font-family="sans-serif" font-size="14" lengthAdjust="spacing" textLength="175" x="670.5" y="1083.1317">AssignmentId : UUID &#171;FK&#187;</text><ellipse cx="661.5" cy="1095.829" fill="#000000" rx="3" ry="3" style="stroke:#000000;stroke-width:1.0;"/><text fill="#000000" font-family="sans-serif" font-size="14" lengthAdjust="spacing" textLength="147" x="670.5" y="1099.62">StudentId : UUID &#171;FK&#187;</text><ellipse cx="661.5" cy="1112.3173" fill="#000000" rx="3" ry="3" style="stroke:#000000;stroke-width:1.0;"/><text fill="#000000" font-family="sans-serif" font-size="14" lengthAdjust="spacing" textLength="129" x="670.5" y="1116.1083">AnswerText : TEXT</text><ellipse cx="661.5" cy="1128.8055" fill="#000000" rx="3" ry="3" style="stroke:#000000;stroke-width:1.0;"/><text fill="#000000" font-family="sans-serif" font-size="14" lengthAdjust="spacing" textLength="177" x="670.5" y="1132.5966">SubmittedAt : TIMESTAMP</text></g><!--class Grade--><g id="elem_Grade"><rect codeLine="125" fill="#FFFFFF" height="124.9297" id="Grade" rx="2.5" ry="2.5" style="stroke:#2C3E50;stroke-width:0.5;" width="234" x="913" y="1014.62"/><rect fill="#ECF0F1" height="26.4883" rx="2.5" ry="2.5" style="stroke:#ECF0F1;stroke-width:0.5;" width="234" x="913" y="1014.62"/><rect fill="#ECF0F1" height="2.5" style="stroke:#ECF0F1;stroke-width:0.5;" width="234" x="913" y="1038.6083"/><rect codeLine="125" fill="none" height="124.9297" id="Grade" rx="2.5" ry="2.5" style="stroke:#2C3E50;stroke-width:0.5;" width="234" x="913" y="1014.62"/><text fill="#000000" font-family="sans-serif" font-size="14" lengthAdjust="spacing" textLength="41" x="1009.5" y="1033.1552">Grade</text><line style="stroke:#2C3E50;stroke-width:0.5;" x1="914" x2="1146" y1="1041.1083" y2="1041.1083"/><ellipse cx="924" cy="1054.8524" fill="#000000" rx="3" ry="3" style="stroke:#000000;stroke-width:1.0;"/><text fill="#000000" font-family="sans-serif" font-size="14" lengthAdjust="spacing" textLength="208" x="933" y="1058.6434">SubmissionId : UUID &#171;PK&#187; &#171;FK&#187;</text><line style="stroke:#2C3E50;stroke-width:1.0;" x1="914" x2="1146" y1="1065.5966" y2="1065.5966"/><ellipse cx="924" cy="1079.3407" fill="#000000" rx="3" ry="3" style="stroke:#000000;stroke-width:1.0;"/><text fill="#000000" font-family="sans-serif" font-size="14" lengthAdjust="spacing" textLength="149" x="933" y="1083.1317">TeacherId : UUID &#171;FK&#187;</text><ellipse cx="924" cy="1095.829" fill="#000000" rx="3" ry="3" style="stroke:#000000;stroke-width:1.0;"/><text fill="#000000" font-family="sans-serif" font-size="14" lengthAdjust="spacing" textLength="73" x="933" y="1099.62">Score : INT</text><text fill="#000000" font-family="sans-serif" font-size="14" lengthAdjust="spacing" textLength="112" x="933" y="1116.1083">Feedback : TEXT</text><ellipse cx="924" cy="1128.8055" fill="#000000" rx="3" ry="3" style="stroke:#000000;stroke-width:1.0;"/><text fill="#000000" font-family="sans-serif" font-size="14" lengthAdjust="spacing" textLength="157" x="933" y="1132.5966">GradedAt : TIMESTAMP</text></g><!--link Enrollment to GMN9--><g id="link_Enrollment_GMN9"><path d="M598.28,521.55 C576.04,521.55 559,521.55 559,521.55 C559,521.55 559,695.55 559,695.55 C559,695.55 544.53,695.55 523.83,695.55 " fill="none" id="Enrollment-GMN9" style="stroke:#2C3E50;stroke-width:1.0;stroke-dasharray:7.0,7.0;"/></g><!--link AuditLog to Account--><g id="link_AuditLog_Account"><path codeLine="139" d="M700,166.69 C700,189 700,180.64 700,202.96 " fill="none" id="AuditLog-Account" style="stroke:#2C3E50;stroke-width:1.0;"/><line style="stroke:#2C3E50;stroke-width:1.0;" x1="700" x2="694" y1="156.69" y2="148.69"/><line style="stroke:#2C3E50;stroke-width:1.0;" x1="700" x2="706" y1="156.69" y2="148.69"/><line style="stroke:#2C3E50;stroke-width:1.0;" x1="700" x2="700" y1="156.69" y2="148.69"/><ellipse cx="700" cy="162.69" fill="none" rx="4" ry="4" style="stroke:#2C3E50;stroke-width:1.0;"/><line style="stroke:#2C3E50;stroke-width:1.0;" x1="700" x2="700" y1="206.96" y2="217.96"/><ellipse cx="700" cy="206.96" fill="none" rx="4" ry="4" style="stroke:#2C3E50;stroke-width:1.0;"/><line style="stroke:#2C3E50;stroke-width:1.0;" x1="704" x2="696" y1="213.96" y2="213.96"/><text fill="#000000" font-family="sans-serif" font-size="13" lengthAdjust="spacing" textLength="23" x="676" y="179.8984">1:M</text></g><!--link Role to Account--><g id="link_Role_Account"><path codeLine="140" d="M527.68,289.55 C547.1,289.55 541.5,289.55 561.31,289.55 " fill="none" id="Role-Account" style="stroke:#2C3E50;stroke-width:1.0;"/><line style="stroke:#2C3E50;stroke-width:1.0;" x1="523.68" x2="523.68" y1="293.55" y2="285.55"/><line style="stroke:#2C3E50;stroke-width:1.0;" x1="526.68" x2="526.68" y1="293.55" y2="285.55"/><line style="stroke:#2C3E50;stroke-width:1.0;" x1="527.68" x2="519.68" y1="289.55" y2="289.55"/><line style="stroke:#2C3E50;stroke-width:1.0;" x1="571.31" x2="579.31" y1="289.55" y2="283.55"/><line style="stroke:#2C3E50;stroke-width:1.0;" x1="571.31" x2="579.31" y1="289.55" y2="295.55"/><line style="stroke:#2C3E50;stroke-width:1.0;" x1="571.31" x2="579.31" y1="289.55" y2="289.55"/><ellipse cx="565.31" cy="289.55" fill="none" rx="4" ry="4" style="stroke:#2C3E50;stroke-width:1.0;"/><text fill="#000000" font-family="sans-serif" font-size="13" lengthAdjust="spacing" textLength="23" x="525.5" y="286.1184">1:M</text></g><!--link Account to UserProfile--><g id="link_Account_UserProfile"><path codeLine="141" d="M828.89,289.55 C848.14,289.55 852.18,289.55 871.74,289.55 " fill="none" id="Account-UserProfile" style="stroke:#2C3E50;stroke-width:1.0;"/><line style="stroke:#2C3E50;stroke-width:1.0;" x1="824.89" x2="824.89" y1="293.55" y2="285.55"/><line style="stroke:#2C3E50;stroke-width:1.0;" x1="827.89" x2="827.89" y1="293.55" y2="285.55"/><line style="stroke:#2C3E50;stroke-width:1.0;" x1="828.89" x2="820.89" y1="289.55" y2="289.55"/><line style="stroke:#2C3E50;stroke-width:1.0;" x1="875.74" x2="875.74" y1="285.55" y2="293.55"/><line style="stroke:#2C3E50;stroke-width:1.0;" x1="872.74" x2="872.74" y1="285.55" y2="293.55"/><line style="stroke:#2C3E50;stroke-width:1.0;" x1="871.74" x2="879.74" y1="289.55" y2="289.55"/><text fill="#000000" font-family="sans-serif" font-size="13" lengthAdjust="spacing" textLength="20" x="829.31" y="286.1184">1:1</text></g><!--link Account to Course--><g id="link_Account_Course"><path codeLine="144" d="M590.75,368.07 C590.75,404.59 590.75,433.55 590.75,433.55 C590.75,433.55 584.9,433.55 556.77,433.55 " fill="none" id="Account-Course" style="stroke:#2C3E50;stroke-width:1.0;"/><line style="stroke:#2C3E50;stroke-width:1.0;" x1="586.75" x2="594.75" y1="364.07" y2="364.07"/><line style="stroke:#2C3E50;stroke-width:1.0;" x1="586.75" x2="594.75" y1="367.07" y2="367.07"/><line style="stroke:#2C3E50;stroke-width:1.0;" x1="590.75" x2="590.75" y1="368.07" y2="360.07"/><line style="stroke:#2C3E50;stroke-width:1.0;" x1="546.77" x2="538.77" y1="433.55" y2="439.55"/><line style="stroke:#2C3E50;stroke-width:1.0;" x1="546.77" x2="538.77" y1="433.55" y2="427.55"/><line style="stroke:#2C3E50;stroke-width:1.0;" x1="546.77" x2="538.77" y1="433.55" y2="433.55"/><ellipse cx="552.77" cy="433.55" fill="none" rx="4" ry="4" style="stroke:#2C3E50;stroke-width:1.0;"/><text fill="#000000" font-family="sans-serif" font-size="13" lengthAdjust="spacing" textLength="78" x="511.75" y="419.3684">1:M (Author)</text></g><!--link Account to Payment--><g id="link_Account_Payment"><path codeLine="145" d="M571.28,343.55 C422.18,343.55 196,343.55 196,343.55 C196,343.55 196,375.91 196,419.59 " fill="none" id="Account-Payment" style="stroke:#2C3E50;stroke-width:1.0;"/><line style="stroke:#2C3E50;stroke-width:1.0;" x1="575.28" x2="575.28" y1="339.55" y2="347.55"/><line style="stroke:#2C3E50;stroke-width:1.0;" x1="572.28" x2="572.28" y1="339.55" y2="347.55"/><line style="stroke:#2C3E50;stroke-width:1.0;" x1="571.28" x2="579.28" y1="343.55" y2="343.55"/><line style="stroke:#2C3E50;stroke-width:1.0;" x1="196" x2="202" y1="429.59" y2="437.59"/><line style="stroke:#2C3E50;stroke-width:1.0;" x1="196" x2="190" y1="429.59" y2="437.59"/><line style="stroke:#2C3E50;stroke-width:1.0;" x1="196" x2="196" y1="429.59" y2="437.59"/><ellipse cx="196" cy="423.59" fill="none" rx="4" ry="4" style="stroke:#2C3E50;stroke-width:1.0;"/><text fill="#000000" font-family="sans-serif" font-size="13" lengthAdjust="spacing" textLength="23" x="316.62" y="340.1184">1:M</text></g><!--link Payment to Course--><g id="link_Payment_Course"><path codeLine="146" d="M317.63,500.55 C337.42,500.55 331.98,500.55 351.29,500.55 " fill="none" id="Payment-Course" style="stroke:#2C3E50;stroke-width:1.0;"/><line style="stroke:#2C3E50;stroke-width:1.0;" x1="307.63" x2="299.63" y1="500.55" y2="506.55"/><line style="stroke:#2C3E50;stroke-width:1.0;" x1="307.63" x2="299.63" y1="500.55" y2="494.55"/><line style="stroke:#2C3E50;stroke-width:1.0;" x1="307.63" x2="299.63" y1="500.55" y2="500.55"/><ellipse cx="313.63" cy="500.55" fill="none" rx="4" ry="4" style="stroke:#2C3E50;stroke-width:1.0;"/><line style="stroke:#2C3E50;stroke-width:1.0;" x1="355.29" x2="355.29" y1="496.55" y2="504.55"/><line style="stroke:#2C3E50;stroke-width:1.0;" x1="352.29" x2="352.29" y1="496.55" y2="504.55"/><line style="stroke:#2C3E50;stroke-width:1.0;" x1="351.29" x2="359.29" y1="500.55" y2="500.55"/><text fill="#000000" font-family="sans-serif" font-size="13" lengthAdjust="spacing" textLength="23" x="305.46" y="497.1184">1:M</text></g><!--link Account to Enrollment--><g id="link_Account_Enrollment"><path codeLine="147" d="M700,368.11 C700,393.3 700,395.45 700,419.9 " fill="none" id="Account-Enrollment" style="stroke:#2C3E50;stroke-width:1.0;"/><line style="stroke:#2C3E50;stroke-width:1.0;" x1="696" x2="704" y1="364.11" y2="364.11"/><line style="stroke:#2C3E50;stroke-width:1.0;" x1="696" x2="704" y1="367.11" y2="367.11"/><line style="stroke:#2C3E50;stroke-width:1.0;" x1="700" x2="700" y1="368.11" y2="360.11"/><line style="stroke:#2C3E50;stroke-width:1.0;" x1="700" x2="706" y1="429.9" y2="437.9"/><line style="stroke:#2C3E50;stroke-width:1.0;" x1="700" x2="694" y1="429.9" y2="437.9"/><line style="stroke:#2C3E50;stroke-width:1.0;" x1="700" x2="700" y1="429.9" y2="437.9"/><ellipse cx="700" cy="423.9" fill="none" rx="4" ry="4" style="stroke:#2C3E50;stroke-width:1.0;"/><text fill="#000000" font-family="sans-serif" font-size="13" lengthAdjust="spacing" textLength="83" x="616" y="395.5684">1:M (Student)</text></g><!--link Course to Enrollment--><g id="link_Course_Enrollment"><path codeLine="148" d="M546.91,479.55 C566.18,479.55 560.67,479.55 580.35,479.55 " fill="none" id="Course-Enrollment" style="stroke:#2C3E50;stroke-width:1.0;"/><line style="stroke:#2C3E50;stroke-width:1.0;" x1="542.91" x2="542.91" y1="483.55" y2="475.55"/><line style="stroke:#2C3E50;stroke-width:1.0;" x1="545.91" x2="545.91" y1="483.55" y2="475.55"/><line style="stroke:#2C3E50;stroke-width:1.0;" x1="546.91" x2="538.91" y1="479.55" y2="479.55"/><line style="stroke:#2C3E50;stroke-width:1.0;" x1="590.35" x2="598.35" y1="479.55" y2="473.55"/><line style="stroke:#2C3E50;stroke-width:1.0;" x1="590.35" x2="598.35" y1="479.55" y2="485.55"/><line style="stroke:#2C3E50;stroke-width:1.0;" x1="590.35" x2="598.35" y1="479.55" y2="479.55"/><ellipse cx="584.35" cy="479.55" fill="none" rx="4" ry="4" style="stroke:#2C3E50;stroke-width:1.0;"/><text fill="#000000" font-family="sans-serif" font-size="13" lengthAdjust="spacing" textLength="23" x="544.63" y="476.1184">1:M</text></g><!--link Enrollment to Certificate--><g id="link_Enrollment_Certificate"><path codeLine="151" d="M700,571.29 C700,596.33 700,608.89 700,633.04 " fill="none" id="Enrollment-Certificate" style="stroke:#2C3E50;stroke-width:1.0;"/><line style="stroke:#2C3E50;stroke-width:1.0;" x1="696" x2="704" y1="567.29" y2="567.29"/><line style="stroke:#2C3E50;stroke-width:1.0;" x1="696" x2="704" y1="570.29" y2="570.29"/><line style="stroke:#2C3E50;stroke-width:1.0;" x1="700" x2="700" y1="571.29" y2="563.29"/><line style="stroke:#2C3E50;stroke-width:1.0;" x1="704" x2="696" y1="637.04" y2="637.04"/><line style="stroke:#2C3E50;stroke-width:1.0;" x1="704" x2="696" y1="634.04" y2="634.04"/><line style="stroke:#2C3E50;stroke-width:1.0;" x1="700" x2="700" y1="633.04" y2="641.04"/><text fill="#000000" font-family="sans-serif" font-size="13" lengthAdjust="spacing" textLength="20" x="679" y="598.7284">1:1</text></g><!--link Course to Module--><g id="link_Course_Module"><path codeLine="154" d="M351.24,567.55 C258.67,567.55 135.75,567.55 135.75,567.55 C135.75,567.55 135.75,588.08 135.75,622.85 " fill="none" id="Course-Module" style="stroke:#2C3E50;stroke-width:1.0;"/><line style="stroke:#2C3E50;stroke-width:1.0;" x1="355.24" x2="355.24" y1="563.55" y2="571.55"/><line style="stroke:#2C3E50;stroke-width:1.0;" x1="352.24" x2="352.24" y1="563.55" y2="571.55"/><line style="stroke:#2C3E50;stroke-width:1.0;" x1="351.24" x2="359.24" y1="567.55" y2="567.55"/><line style="stroke:#2C3E50;stroke-width:1.0;" x1="135.75" x2="141.75" y1="632.85" y2="640.85"/><line style="stroke:#2C3E50;stroke-width:1.0;" x1="135.75" x2="129.75" y1="632.85" y2="640.85"/><line style="stroke:#2C3E50;stroke-width:1.0;" x1="135.75" x2="135.75" y1="632.85" y2="640.85"/><ellipse cx="135.75" cy="626.85" fill="none" rx="4" ry="4" style="stroke:#2C3E50;stroke-width:1.0;"/><text fill="#000000" font-family="sans-serif" font-size="13" lengthAdjust="spacing" textLength="23" x="186.84" y="581.1184">1:M</text></g><!--link Module to Lesson--><g id="link_Module_Lesson"><path codeLine="155" d="M145,757.97 C145,779.71 145,778.87 145,801.37 " fill="none" id="Module-Lesson" style="stroke:#2C3E50;stroke-width:1.0;"/><line style="stroke:#2C3E50;stroke-width:1.0;" x1="141" x2="149" y1="753.97" y2="753.97"/><line style="stroke:#2C3E50;stroke-width:1.0;" x1="141" x2="149" y1="756.97" y2="756.97"/><line style="stroke:#2C3E50;stroke-width:1.0;" x1="145" x2="145" y1="757.97" y2="749.97"/><line style="stroke:#2C3E50;stroke-width:1.0;" x1="145" x2="151" y1="811.37" y2="819.37"/><line style="stroke:#2C3E50;stroke-width:1.0;" x1="145" x2="139" y1="811.37" y2="819.37"/><line style="stroke:#2C3E50;stroke-width:1.0;" x1="145" x2="145" y1="811.37" y2="819.37"/><ellipse cx="145" cy="805.37" fill="none" rx="4" ry="4" style="stroke:#2C3E50;stroke-width:1.0;"/><text fill="#000000" font-family="sans-serif" font-size="13" lengthAdjust="spacing" textLength="23" x="121" y="781.2384">1:M</text></g><!--link Lesson to Assignment--><g id="link_Lesson_Assignment"><path codeLine="156" d="M197,953.06 C197,1010.18 197,1077.55 197,1077.55 C197,1077.55 244.72,1077.55 302.1,1077.55 " fill="none" id="Lesson-Assignment" style="stroke:#2C3E50;stroke-width:1.0;"/><line style="stroke:#2C3E50;stroke-width:1.0;" x1="193" x2="201" y1="949.06" y2="949.06"/><line style="stroke:#2C3E50;stroke-width:1.0;" x1="193" x2="201" y1="952.06" y2="952.06"/><line style="stroke:#2C3E50;stroke-width:1.0;" x1="197" x2="197" y1="953.06" y2="945.06"/><line style="stroke:#2C3E50;stroke-width:1.0;" x1="312.1" x2="320.1" y1="1077.55" y2="1071.55"/><line style="stroke:#2C3E50;stroke-width:1.0;" x1="312.1" x2="320.1" y1="1077.55" y2="1083.55"/><line style="stroke:#2C3E50;stroke-width:1.0;" x1="312.1" x2="320.1" y1="1077.55" y2="1077.55"/><ellipse cx="306.1" cy="1077.55" fill="none" rx="4" ry="4" style="stroke:#2C3E50;stroke-width:1.0;"/><text fill="#000000" font-family="sans-serif" font-size="13" lengthAdjust="spacing" textLength="23" x="173" y="1069.4184">1:M</text></g><!--link Assignment to Submission--><g id="link_Assignment_Submission"><path codeLine="159" d="M495.8,1077.55 C544.67,1077.55 580.66,1077.55 632.32,1077.55 " fill="none" id="Assignment-Submission" style="stroke:#2C3E50;stroke-width:1.0;"/><line style="stroke:#2C3E50;stroke-width:1.0;" x1="491.8" x2="491.8" y1="1081.55" y2="1073.55"/><line style="stroke:#2C3E50;stroke-width:1.0;" x1="494.8" x2="494.8" y1="1081.55" y2="1073.55"/><line style="stroke:#2C3E50;stroke-width:1.0;" x1="495.8" x2="487.8" y1="1077.55" y2="1077.55"/><line style="stroke:#2C3E50;stroke-width:1.0;" x1="642.32" x2="650.32" y1="1077.55" y2="1071.55"/><line style="stroke:#2C3E50;stroke-width:1.0;" x1="642.32" x2="650.32" y1="1077.55" y2="1083.55"/><line style="stroke:#2C3E50;stroke-width:1.0;" x1="642.32" x2="650.32" y1="1077.55" y2="1077.55"/><ellipse cx="636.32" cy="1077.55" fill="none" rx="4" ry="4" style="stroke:#2C3E50;stroke-width:1.0;"/><text fill="#000000" font-family="sans-serif" font-size="13" lengthAdjust="spacing" textLength="23" x="545.06" y="1074.1184">1:M</text></g><!--link Account to Submission--><g id="link_Account_Submission"><path codeLine="160" d="M828.75,357.55 C838.68,357.55 837,357.55 837,357.55 C837,357.55 837,820.86 837,996.18 " fill="none" id="Account-Submission" style="stroke:#2C3E50;stroke-width:1.0;"/><line style="stroke:#2C3E50;stroke-width:1.0;" x1="824.75" x2="824.75" y1="361.55" y2="353.55"/><line style="stroke:#2C3E50;stroke-width:1.0;" x1="827.75" x2="827.75" y1="361.55" y2="353.55"/><line style="stroke:#2C3E50;stroke-width:1.0;" x1="828.75" x2="820.75" y1="357.55" y2="357.55"/><line style="stroke:#2C3E50;stroke-width:1.0;" x1="837" x2="843" y1="1006.18" y2="1014.18"/><line style="stroke:#2C3E50;stroke-width:1.0;" x1="837" x2="831" y1="1006.18" y2="1014.18"/><line style="stroke:#2C3E50;stroke-width:1.0;" x1="837" x2="837" y1="1006.18" y2="1014.18"/><ellipse cx="837" cy="1000.18" fill="none" rx="4" ry="4" style="stroke:#2C3E50;stroke-width:1.0;"/><text fill="#000000" font-family="sans-serif" font-size="13" lengthAdjust="spacing" textLength="83" x="838" y="674.3084">1:M (Student)</text></g><!--link Submission to Grade--><g id="link_Submission_Grade"><path codeLine="161" d="M861.94,1077.55 C881,1077.55 885.06,1077.55 904.55,1077.55 " fill="none" id="Submission-Grade" style="stroke:#2C3E50;stroke-width:1.0;"/><line style="stroke:#2C3E50;stroke-width:1.0;" x1="857.94" x2="857.94" y1="1081.55" y2="1073.55"/><line style="stroke:#2C3E50;stroke-width:1.0;" x1="860.94" x2="860.94" y1="1081.55" y2="1073.55"/><line style="stroke:#2C3E50;stroke-width:1.0;" x1="861.94" x2="853.94" y1="1077.55" y2="1077.55"/><line style="stroke:#2C3E50;stroke-width:1.0;" x1="908.55" x2="908.55" y1="1073.55" y2="1081.55"/><line style="stroke:#2C3E50;stroke-width:1.0;" x1="905.55" x2="905.55" y1="1073.55" y2="1081.55"/><line style="stroke:#2C3E50;stroke-width:1.0;" x1="904.55" x2="912.55" y1="1077.55" y2="1077.55"/><text fill="#000000" font-family="sans-serif" font-size="13" lengthAdjust="spacing" textLength="20" x="862.24" y="1074.1184">1:1</text></g><!--link Account to Grade--><g id="link_Account_Grade"><path codeLine="162" d="M828.54,354.55 C922.81,354.55 1030,354.55 1030,354.55 C1030,354.55 1030,820.44 1030,996.23 " fill="none" id="Account-Grade" style="stroke:#2C3E50;stroke-width:1.0;"/><line style="stroke:#2C3E50;stroke-width:1.0;" x1="824.54" x2="824.54" y1="358.55" y2="350.55"/><line style="stroke:#2C3E50;stroke-width:1.0;" x1="827.54" x2="827.54" y1="358.55" y2="350.55"/><line style="stroke:#2C3E50;stroke-width:1.0;" x1="828.54" x2="820.54" y1="354.55" y2="354.55"/><line style="stroke:#2C3E50;stroke-width:1.0;" x1="1030" x2="1036" y1="1006.23" y2="1014.23"/><line style="stroke:#2C3E50;stroke-width:1.0;" x1="1030" x2="1024" y1="1006.23" y2="1014.23"/><line style="stroke:#2C3E50;stroke-width:1.0;" x1="1030" x2="1030" y1="1006.23" y2="1014.23"/><ellipse cx="1030" cy="1000.23" fill="none" rx="4" ry="4" style="stroke:#2C3E50;stroke-width:1.0;"/><text fill="#000000" font-family="sans-serif" font-size="13" lengthAdjust="spacing" textLength="84" x="945" y="576.2284">1:M (Teacher)</text></g><!--SRC=[bLPTRnD757tthxWo3x6Zk4f2GwM88XdZD1RvQcANzgdQs9DuXRqJpQu94K5gaa9RWO1IjGGgIccV-eHBIGc1cBym-uzwPcPtFKdik4IAT-REpBtddlinKtThZAgkg3POoh_gUckES9hKS3qMRAmnuYAeSsj1y9PNgtBXCK4JbjpZDUQpDJetQczslAjA-8ajh3OStwSRASBVHQTwTLMhBF065tIbxWPCh-I5uEj6U6QySBOuCMeES55ZugHycZcG7rTtfbYO6fqQIzrCfOOebykHV2x_b7_9f_8tZFwGkqgOIZ4lS8CDIkTRDJUOuQjfSdoA9nhfC9LgD4cLIkaIdJ-_SFd21GXn53YhLTWBxEKfipoCjS3b7XQ-o2yMflEBcR7HqInMYjhUdDDarjg4jPHeqshARfFvWTDSWx1ScYqkbVEp2ygd6FSYRp2DMGrilAMvyZ6umtJIBBPKFiSMIsFabI72Z0VmC4p5fkCsBCtZ4-SIrMfz0M5VH_Yc7Rz-R9jUL-0jr0cB9L_nU4s1lZW_FwDb1S6SWDNoGJzAAZuJ2uAlk14prZnof4VWb3zTov5RKwxmWvwn6gOPfy_IGfrxRAxLN4QLMAwEMeJahpc18ogYSUGmJbjUB3WRJHQ58HeF3CDf2LdWBU6pthdQr46UfBdAR76nL42kZj1uDegSDdq9bFVZssZMGCrmCCuM6eleYQNi1WsRqp53wYNcLuMx5jLKkVXbsQ0JRfNr1huKE47BnrfLO_hQrtCRTz4JlD58IEvE1-9V2berzk4y9v1OOYg6fOj8ItjajiT1_Z8F0jualc81nJ7qj4EvBmzaMxuDxyh3y8vyGn0SobToJnw4MvH9q8uau1H5LwQBYyKOqwSqP2fj2FJKI5cq0in4uAwuLUI0YN9tFhWp962FKsBtXvBljquuhjdicZgzN6PvhHNLknaEH7PAeFeauJ3Dgni8jMqwbMr_Xla-zxHzCnnety3y4Fi5xWLC5sfI0Fq1vNtVNVMIxEvE1m8p-7i2wrE6iyxr9RmBs4aKIwtbfWlJ4JNTwU0UaG3kKqlzIp3l-UjCbDdr8rHfsy6fDyTd0Yy93LIF8enTq0ClZ39pgdNMkxFP315DCLPRnfF5HgYDze0NlL-UoWVwvV8xNZ2FvHFvW31KecSG_8h_N-JFsBGhNwYtpaFvGZw2u35bPl9VpLVAMVtW6IAv6sx9zxAZ-yLhV5-YTwWUiaVujENxy1lylfHlqJyELKC9Rr6u5Mv3l0TXHnvG9bVZwrvkX7B2NQq7Qj1WA_hRMijbILbvYOFcL1kwbOszS9l2RGp-Xfhzy7Pu1xi86nI4mt0dl0SxQXVQriu8GH2VFmplX_Sfl8LX1nrDxXCSsDE03jHl-8Cn4TxJepqSl4_AYFPh_oD5eVmn0ZysgUZPLyfn_frkcN3zbMOXcYW32bZuBSw39yg0JnW41ANnZG9dS8EZy6usbRmORtB33TzC7a-Jb1wRd4sdz0jjSpFYZDyuiI6U9tisDuyyNlI-iVGHRyRXpKyOjpM72douWwY-1RaP-KJ1L8GXt1JUrc31g68N8XpI5FmBTq6yYZSunD9hB7od68foO5-HlvKaHZjh8pNUteYlVkCBPSmLdqsduhSBY45kR9wanTgGU7r4MJfbNSrzr2It72n6XsscBGMnJfl4io3n8RZew9YRn7WVfxz9ZevAIcIBeH2Psq4szsBA1XlJepooxinUSVmO47PrJhTrcYdESQjtb3bZLBOHqUUw8Zho7mHKHHp9-3fhUHn78xe3OsUZgRKXkgJY3T7Ksc1T6Bqecm3UPpeX3W1DFq00xn7cff1qpkp0aOvyXUhTLcZZ10Bq0z9r-ttCcdodYwvZabG_PzuXpReOx6XQjqWCpHBzZmonTjkrPff-71qpwwijQlNGzXy0]--></g></svg>